<svg height="800" viewBox="0 0 1500 800" width="1500" xmlns="http://www.w3.org/2000/svg"><path d="m0 0h1500v800h-1500z" fill="#001220"/><path d="m0 595 19.2 2.3c19.1 2.4 57.5 7 96 5.5s77.1-9.1 115.6-10c38.5-.8 76.9 5.2 115.4 3 38.5-2.1 77.1-12.5 115.6-26.6 38.5-14.2 76.9-32.2 115.2-26 38.3 6.1 76.7 36.5 115.2 48s77.1 4.1 115.6 7.6 76.9 17.9 115.2 7.9 76.7-44.4 115.2-62.9 77.1-21.1 115.6-4.5c38.5 16.7 76.9 52.7 115.4 63.4 38.5 10.6 77.1-4 115.6-12.7s76.9-11.3 96-12.7l19.2-1.3v225h-19.2c-19.1 0-57.5 0-96 0s-77.1 0-115.6 0-76.9 0-115.4 0-77.1 0-115.6 0-76.9 0-115.2 0-76.7 0-115.2 0-77.1 0-115.6 0-76.9 0-115.2 0-76.7 0-115.2 0-77.1 0-115.6 0-76.9 0-115.4 0-77.1 0-115.6 0-76.9 0-96 0h-19.2z" fill="#03084d"/><path d="m0 674 19.2-11.2c19.1-11.1 57.5-33.5 96-51.5s77.1-31.6 115.6-19.6 76.9 49.6 115.4 56.3 77.1-17.7 115.6-24.8c38.5-7.2 76.9 2.8 115.2 16.6 38.3 13.9 76.7 31.5 115.2 34.4 38.5 2.8 77.1-9.2 115.6-24.4 38.5-15.1 76.9-33.5 115.2-33.3s76.7 18.8 115.2 31.5 77.1 19.3 115.6 14.2c38.5-5.2 76.9-22.2 115.4-31.7s77.1-11.5 115.6-21.8c38.5-10.4 76.9-29 96-38.4l19.2-9.3v240h-19.2c-19.1 0-57.5 0-96 0s-77.1 0-115.6 0-76.9 0-115.4 0-77.1 0-115.6 0-76.9 0-115.2 0-76.7 0-115.2 0-77.1 0-115.6 0-76.9 0-115.2 0-76.7 0-115.2 0-77.1 0-115.6 0-76.9 0-115.4 0-77.1 0-115.6 0-76.9 0-96 0h-19.2z" fill="#05095f"/><path d="m0 634 19.2 1.8c19.1 1.9 57.5 5.5 96 18s77.1 33.9 115.6 42.4 76.9 4.1 115.4-10.2 77.1-38.7 115.6-43.2 76.9 10.9 115.2 20.9 76.7 14.6 115.2 8.5c38.5-6.2 77.1-23.2 115.6-23 38.5.1 76.9 17.5 115.2 23.3s76.7.2 115.2-12.2c38.5-12.3 77.1-31.3 115.6-36.3s76.9 4 115.4 20.7c38.5 16.6 77.1 41 115.6 47.6 38.5 6.7 76.9-4.3 96-9.8l19.2-5.5v124h-19.2c-19.1 0-57.5 0-96 0s-77.1 0-115.6 0-76.9 0-115.4 0-77.1 0-115.6 0-76.9 0-115.2 0-76.7 0-115.2 0-77.1 0-115.6 0-76.9 0-115.2 0-76.7 0-115.2 0-77.1 0-115.6 0-76.9 0-115.4 0-77.1 0-115.6 0-76.9 0-96 0h-19.2z" fill="#0c0971"/><path d="m0 720 19.2 4.7c19.1 4.6 57.5 14 96 7.8s77.1-27.8 115.6-30.8 76.9 12.6 115.4 19c38.5 6.3 77.1 3.3 115.6.6 38.5-2.6 76.9-5 115.2-14.3s76.7-25.7 115.2-20 77.1 33.3 115.6 44.5 76.9 5.8 115.2-9 76.7-39.2 115.2-46 77.1 3.8 115.6 16.5 76.9 27.3 115.4 25.2c38.5-2.2 77.1-21.2 115.6-19.4 38.5 1.9 76.9 24.5 96 35.9l19.2 11.3v55h-19.2c-19.1 0-57.5 0-96 0s-77.1 0-115.6 0-76.9 0-115.4 0-77.1 0-115.6 0-76.9 0-115.2 0-76.7 0-115.2 0-77.1 0-115.6 0-76.9 0-115.2 0-76.7 0-115.2 0-77.1 0-115.6 0-76.9 0-115.4 0-77.1 0-115.6 0-76.9 0-96 0h-19.2z" fill="#160783"/><path d="m0 765 19.2 2.2c19.1 2.1 57.5 6.5 96 8s77.1.1 115.6-11.4 76.9-33.1 115.4-43.6 77.1-9.9 115.6-2.9 76.9 20.4 115.2 23c38.3 2.7 76.7-5.3 115.2-5.5 38.5-.1 77.1 7.5 115.6 4.7s76.9-16.2 115.2-11.5 76.7 27.3 115.2 34.3 77.1-1.6 115.6-2.8 76.9 5.2 115.4 8.3c38.5 3.2 77.1 3.2 115.6-6.5 38.5-9.6 76.9-29 96-38.6l19.2-9.7v88h-19.2c-19.1 0-57.5 0-96 0s-77.1 0-115.6 0-76.9 0-115.4 0-77.1 0-115.6 0-76.9 0-115.2 0-76.7 0-115.2 0-77.1 0-115.6 0-76.9 0-115.2 0-76.7 0-115.2 0-77.1 0-115.6 0-76.9 0-115.4 0-77.1 0-115.6 0-76.9 0-96 0h-19.2z" fill="#210295"/></svg>