<svg id="visual" viewBox="0 0 1800 900" width="1800" height="900" xmlns="http://www.w3.org/2000/svg" xmlns:xlink="http://www.w3.org/1999/xlink" version="1.1"><rect x="0" y="0" width="1800" height="900" fill="#001220"></rect><path d="M0 670L23 672.7C46 675.3 92 680.7 138.2 678.8C184.3 677 230.7 668 276.8 666.8C323 665.7 369 672.3 415.2 669.8C461.3 667.3 507.7 655.7 553.8 639.8C600 624 646 604 692.2 611.2C738.3 618.3 784.7 652.7 830.8 665.7C877 678.7 923 670.3 969.2 674.2C1015.3 678 1061.7 694 1107.8 682.7C1154 671.3 1200 632.7 1246.2 611.8C1292.3 591 1338.7 588 1384.8 606.8C1431 625.7 1477 666.3 1523.2 678.3C1569.3 690.3 1615.7 673.7 1661.8 663.8C1708 654 1754 651 1777 649.5L1800 648L1800 901L1777 901C1754 901 1708 901 1661.8 901C1615.7 901 1569.3 901 1523.2 901C1477 901 1431 901 1384.8 901C1338.7 901 1292.3 901 1246.2 901C1200 901 1154 901 1107.8 901C1061.7 901 1015.3 901 969.2 901C923 901 877 901 830.8 901C784.7 901 738.3 901 692.2 901C646 901 600 901 553.8 901C507.7 901 461.3 901 415.2 901C369 901 323 901 276.8 901C230.7 901 184.3 901 138.2 901C92 901 46 901 23 901L0 901Z" fill="#03084d"></path><path d="M0 759L23 746.3C46 733.7 92 708.3 138.2 688C184.3 667.7 230.7 652.3 276.8 665.8C323 679.3 369 721.7 415.2 729.2C461.3 736.7 507.7 709.3 553.8 701.3C600 693.3 646 704.7 692.2 720.2C738.3 735.7 784.7 755.3 830.8 758.3C877 761.3 923 747.7 969.2 730.5C1015.3 713.3 1061.7 692.7 1107.8 693C1154 693.3 1200 714.7 1246.2 729C1292.3 743.3 1338.7 750.7 1384.8 744.8C1431 739 1477 720 1523.2 709.3C1569.3 698.7 1615.7 696.3 1661.8 684.7C1708 673 1754 652 1777 641.5L1800 631L1800 901L1777 901C1754 901 1708 901 1661.8 901C1615.7 901 1569.3 901 1523.2 901C1477 901 1431 901 1384.8 901C1338.7 901 1292.3 901 1246.2 901C1200 901 1154 901 1107.8 901C1061.7 901 1015.3 901 969.2 901C923 901 877 901 830.8 901C784.7 901 738.3 901 692.2 901C646 901 600 901 553.8 901C507.7 901 461.3 901 415.2 901C369 901 323 901 276.8 901C230.7 901 184.3 901 138.2 901C92 901 46 901 23 901L0 901Z" fill="#05095f"></path><path d="M0 714L23 716C46 718 92 722 138.2 735.8C184.3 749.7 230.7 773.3 276.8 782.8C323 792.3 369 787.7 415.2 771.7C461.3 755.7 507.7 728.3 553.8 723.3C600 718.3 646 735.7 692.2 747C738.3 758.3 784.7 763.7 830.8 756.7C877 749.7 923 730.3 969.2 730.5C1015.3 730.7 1061.7 750.3 1107.8 757C1154 763.7 1200 757.3 1246.2 743.3C1292.3 729.3 1338.7 707.7 1384.8 702C1431 696.3 1477 706.7 1523.2 725.5C1569.3 744.3 1615.7 771.7 1661.8 779.2C1708 786.7 1754 774.3 1777 768.2L1800 762L1800 901L1777 901C1754 901 1708 901 1661.8 901C1615.7 901 1569.3 901 1523.2 901C1477 901 1431 901 1384.8 901C1338.7 901 1292.3 901 1246.2 901C1200 901 1154 901 1107.8 901C1061.7 901 1015.3 901 969.2 901C923 901 877 901 830.8 901C784.7 901 738.3 901 692.2 901C646 901 600 901 553.8 901C507.7 901 461.3 901 415.2 901C369 901 323 901 276.8 901C230.7 901 184.3 901 138.2 901C92 901 46 901 23 901L0 901Z" fill="#0c0971"></path><path d="M0 810L23 815.3C46 820.7 92 831.3 138.2 824.3C184.3 817.3 230.7 792.7 276.8 789.2C323 785.7 369 803.3 415.2 810.5C461.3 817.7 507.7 814.3 553.8 811.5C600 808.7 646 806.3 692.2 795.8C738.3 785.3 784.7 766.7 830.8 772.8C877 779 923 810 969.2 822.7C1015.3 835.3 1061.7 829.7 1107.8 813.2C1154 796.7 1200 769.3 1246.2 761.5C1292.3 753.7 1338.7 765.3 1384.8 779.5C1431 793.7 1477 810.3 1523.2 807.8C1569.3 805.3 1615.7 783.7 1661.8 785.8C1708 788 1754 814 1777 827L1800 840L1800 901L1777 901C1754 901 1708 901 1661.8 901C1615.7 901 1569.3 901 1523.2 901C1477 901 1431 901 1384.8 901C1338.7 901 1292.3 901 1246.2 901C1200 901 1154 901 1107.8 901C1061.7 901 1015.3 901 969.2 901C923 901 877 901 830.8 901C784.7 901 738.3 901 692.2 901C646 901 600 901 553.8 901C507.7 901 461.3 901 415.2 901C369 901 323 901 276.8 901C230.7 901 184.3 901 138.2 901C92 901 46 901 23 901L0 901Z" fill="#160783"></path><path d="M0 860L23 862.7C46 865.3 92 870.7 138.2 872.5C184.3 874.3 230.7 872.7 276.8 859.5C323 846.3 369 821.7 415.2 809.8C461.3 798 507.7 799 553.8 807C600 815 646 830 692.2 833C738.3 836 784.7 827 830.8 826.8C877 826.7 923 835.3 969.2 832.2C1015.3 829 1061.7 814 1107.8 819.3C1154 824.7 1200 850.3 1246.2 858.2C1292.3 866 1338.7 856 1384.8 854.5C1431 853 1477 860 1523.2 863.7C1569.3 867.3 1615.7 867.7 1661.8 856.8C1708 846 1754 824 1777 813L1800 802L1800 901L1777 901C1754 901 1708 901 1661.8 901C1615.7 901 1569.3 901 1523.2 901C1477 901 1431 901 1384.8 901C1338.7 901 1292.3 901 1246.2 901C1200 901 1154 901 1107.8 901C1061.7 901 1015.3 901 969.2 901C923 901 877 901 830.8 901C784.7 901 738.3 901 692.2 901C646 901 600 901 553.8 901C507.7 901 461.3 901 415.2 901C369 901 323 901 276.8 901C230.7 901 184.3 901 138.2 901C92 901 46 901 23 901L0 901Z" fill="#210295"></path></svg>