<svg id="visual" viewBox="0 0 2560 1380" width="2560" height="1380" xmlns="http://www.w3.org/2000/svg" xmlns:xlink="http://www.w3.org/1999/xlink" version="1.1"><rect x="0" y="0" width="2560" height="1380" fill="#001220"></rect><path d="M0 1028L32.8 1032C65.7 1036 131.3 1044 197 1041.2C262.7 1038.3 328.3 1024.7 394 1023C459.7 1021.3 525.3 1031.7 591 1028C656.7 1024.3 722.3 1006.7 788 982.5C853.7 958.3 919.3 927.7 985 938.5C1050.7 949.3 1116.3 1001.7 1181.8 1021.3C1247.3 1041 1312.7 1028 1378.2 1033.8C1443.7 1039.7 1509.3 1064.3 1575 1047.2C1640.7 1030 1706.3 971 1772 939.2C1837.7 907.3 1903.3 902.7 1969 931.5C2034.7 960.3 2100.3 1022.7 2166 1041.2C2231.7 1059.7 2297.3 1034.3 2363 1019.2C2428.7 1004 2494.3 999 2527.2 996.5L2560 994L2560 1381L2527.2 1381C2494.3 1381 2428.7 1381 2363 1381C2297.3 1381 2231.7 1381 2166 1381C2100.3 1381 2034.7 1381 1969 1381C1903.3 1381 1837.7 1381 1772 1381C1706.3 1381 1640.7 1381 1575 1381C1509.3 1381 1443.7 1381 1378.2 1381C1312.7 1381 1247.3 1381 1181.8 1381C1116.3 1381 1050.7 1381 985 1381C919.3 1381 853.7 1381 788 1381C722.3 1381 656.7 1381 591 1381C525.3 1381 459.7 1381 394 1381C328.3 1381 262.7 1381 197 1381C131.3 1381 65.7 1381 32.8 1381L0 1381Z" fill="#03084d"></path><path d="M0 1164L32.8 1144.7C65.7 1125.3 131.3 1086.7 197 1055.5C262.7 1024.3 328.3 1000.7 394 1021.3C459.7 1042 525.3 1107 591 1118.5C656.7 1130 722.3 1088 788 1075.7C853.7 1063.3 919.3 1080.7 985 1104.5C1050.7 1128.3 1116.3 1158.7 1181.8 1163.5C1247.3 1168.3 1312.7 1147.7 1378.2 1121.3C1443.7 1095 1509.3 1063 1575 1063.3C1640.7 1063.7 1706.3 1096.3 1772 1118.3C1837.7 1140.3 1903.3 1151.7 1969 1142.7C2034.7 1133.7 2100.3 1104.3 2166 1087.8C2231.7 1071.3 2297.3 1067.7 2363 1049.8C2428.7 1032 2494.3 1000 2527.2 984L2560 968L2560 1381L2527.2 1381C2494.3 1381 2428.7 1381 2363 1381C2297.3 1381 2231.7 1381 2166 1381C2100.3 1381 2034.7 1381 1969 1381C1903.3 1381 1837.7 1381 1772 1381C1706.3 1381 1640.7 1381 1575 1381C1509.3 1381 1443.7 1381 1378.2 1381C1312.7 1381 1247.3 1381 1181.8 1381C1116.3 1381 1050.7 1381 985 1381C919.3 1381 853.7 1381 788 1381C722.3 1381 656.7 1381 591 1381C525.3 1381 459.7 1381 394 1381C328.3 1381 262.7 1381 197 1381C131.3 1381 65.7 1381 32.8 1381L0 1381Z" fill="#05095f"></path><path d="M0 1095L32.8 1098.2C65.7 1101.3 131.3 1107.7 197 1129C262.7 1150.3 328.3 1186.7 394 1201.2C459.7 1215.7 525.3 1208.3 591 1183.7C656.7 1159 722.3 1117 788 1109.5C853.7 1102 919.3 1129 985 1146.3C1050.7 1163.7 1116.3 1171.3 1181.8 1160.5C1247.3 1149.7 1312.7 1120.3 1378.2 1120.7C1443.7 1121 1509.3 1151 1575 1161.2C1640.7 1171.3 1706.3 1161.7 1772 1140.2C1837.7 1118.7 1903.3 1085.3 1969 1076.7C2034.7 1068 2100.3 1084 2166 1112.8C2231.7 1141.7 2297.3 1183.3 2363 1194.7C2428.7 1206 2494.3 1187 2527.2 1177.5L2560 1168L2560 1381L2527.2 1381C2494.3 1381 2428.7 1381 2363 1381C2297.3 1381 2231.7 1381 2166 1381C2100.3 1381 2034.7 1381 1969 1381C1903.3 1381 1837.7 1381 1772 1381C1706.3 1381 1640.7 1381 1575 1381C1509.3 1381 1443.7 1381 1378.2 1381C1312.7 1381 1247.3 1381 1181.8 1381C1116.3 1381 1050.7 1381 985 1381C919.3 1381 853.7 1381 788 1381C722.3 1381 656.7 1381 591 1381C525.3 1381 459.7 1381 394 1381C328.3 1381 262.7 1381 197 1381C131.3 1381 65.7 1381 32.8 1381L0 1381Z" fill="#0c0971"></path><path d="M0 1243L32.8 1251C65.7 1259 131.3 1275 197 1264.3C262.7 1253.7 328.3 1216.3 394 1211C459.7 1205.7 525.3 1232.3 591 1243.2C656.7 1254 722.3 1249 788 1244.7C853.7 1240.3 919.3 1236.7 985 1220.7C1050.7 1204.7 1116.3 1176.3 1181.8 1186C1247.3 1195.7 1312.7 1243.3 1378.2 1262.5C1443.7 1281.7 1509.3 1272.3 1575 1246.8C1640.7 1221.3 1706.3 1179.7 1772 1168C1837.7 1156.3 1903.3 1174.7 1969 1196.3C2034.7 1218 2100.3 1243 2166 1239C2231.7 1235 2297.3 1202 2363 1205.3C2428.7 1208.7 2494.3 1248.3 2527.2 1268.2L2560 1288L2560 1381L2527.2 1381C2494.3 1381 2428.7 1381 2363 1381C2297.3 1381 2231.7 1381 2166 1381C2100.3 1381 2034.7 1381 1969 1381C1903.3 1381 1837.7 1381 1772 1381C1706.3 1381 1640.7 1381 1575 1381C1509.3 1381 1443.7 1381 1378.2 1381C1312.7 1381 1247.3 1381 1181.8 1381C1116.3 1381 1050.7 1381 985 1381C919.3 1381 853.7 1381 788 1381C722.3 1381 656.7 1381 591 1381C525.3 1381 459.7 1381 394 1381C328.3 1381 262.7 1381 197 1381C131.3 1381 65.7 1381 32.8 1381L0 1381Z" fill="#160783"></path><path d="M0 1320L32.8 1324C65.7 1328 131.3 1336 197 1338.7C262.7 1341.3 328.3 1338.7 394 1318.5C459.7 1298.3 525.3 1260.7 591 1242.5C656.7 1224.3 722.3 1225.7 788 1237.8C853.7 1250 919.3 1273 985 1277.7C1050.7 1282.3 1116.3 1268.7 1181.8 1268.5C1247.3 1268.3 1312.7 1281.7 1378.2 1276.8C1443.7 1272 1509.3 1249 1575 1257C1640.7 1265 1706.3 1304 1772 1315.8C1837.7 1327.7 1903.3 1312.3 1969 1310.2C2034.7 1308 2100.3 1319 2166 1324.7C2231.7 1330.3 2297.3 1330.7 2363 1314C2428.7 1297.3 2494.3 1263.7 2527.2 1246.8L2560 1230L2560 1381L2527.2 1381C2494.3 1381 2428.7 1381 2363 1381C2297.3 1381 2231.7 1381 2166 1381C2100.3 1381 2034.7 1381 1969 1381C1903.3 1381 1837.7 1381 1772 1381C1706.3 1381 1640.7 1381 1575 1381C1509.3 1381 1443.7 1381 1378.2 1381C1312.7 1381 1247.3 1381 1181.8 1381C1116.3 1381 1050.7 1381 985 1381C919.3 1381 853.7 1381 788 1381C722.3 1381 656.7 1381 591 1381C525.3 1381 459.7 1381 394 1381C328.3 1381 262.7 1381 197 1381C131.3 1381 65.7 1381 32.8 1381L0 1381Z" fill="#210295"></path></svg>