<svg id="visual" viewBox="0 0 1500 900" width="1500" height="900" xmlns="http://www.w3.org/2000/svg" xmlns:xlink="http://www.w3.org/1999/xlink" version="1.1"><rect x="0" y="0" width="1500" height="900" fill="#001220"></rect><path d="M0 670L19.2 672.7C38.3 675.3 76.7 680.7 115.2 678.8C153.7 677 192.3 668 230.8 666.8C269.3 665.7 307.7 672.3 346.2 669.8C384.7 667.3 423.3 655.7 461.8 639.8C500.3 624 538.7 604 577 611.2C615.3 618.3 653.7 652.7 692.2 665.7C730.7 678.7 769.3 670.3 807.8 674.2C846.3 678 884.7 694 923 682.7C961.3 671.3 999.7 632.7 1038.2 611.8C1076.7 591 1115.3 588 1153.8 606.8C1192.3 625.7 1230.7 666.3 1269.2 678.3C1307.7 690.3 1346.3 673.7 1384.8 663.8C1423.3 654 1461.7 651 1480.8 649.5L1500 648L1500 901L1480.8 901C1461.7 901 1423.3 901 1384.8 901C1346.3 901 1307.7 901 1269.2 901C1230.7 901 1192.3 901 1153.8 901C1115.3 901 1076.7 901 1038.2 901C999.7 901 961.3 901 923 901C884.7 901 846.3 901 807.8 901C769.3 901 730.7 901 692.2 901C653.7 901 615.3 901 577 901C538.7 901 500.3 901 461.8 901C423.3 901 384.7 901 346.2 901C307.7 901 269.3 901 230.8 901C192.3 901 153.7 901 115.2 901C76.7 901 38.3 901 19.2 901L0 901Z" fill="#03084d"></path><path d="M0 759L19.2 746.3C38.3 733.7 76.7 708.3 115.2 688C153.7 667.7 192.3 652.3 230.8 665.8C269.3 679.3 307.7 721.7 346.2 729.2C384.7 736.7 423.3 709.3 461.8 701.3C500.3 693.3 538.7 704.7 577 720.2C615.3 735.7 653.7 755.3 692.2 758.3C730.7 761.3 769.3 747.7 807.8 730.5C846.3 713.3 884.7 692.7 923 693C961.3 693.3 999.7 714.7 1038.2 729C1076.7 743.3 1115.3 750.7 1153.8 744.8C1192.3 739 1230.7 720 1269.2 709.3C1307.7 698.7 1346.3 696.3 1384.8 684.7C1423.3 673 1461.7 652 1480.8 641.5L1500 631L1500 901L1480.8 901C1461.7 901 1423.3 901 1384.8 901C1346.3 901 1307.7 901 1269.2 901C1230.7 901 1192.3 901 1153.8 901C1115.3 901 1076.7 901 1038.2 901C999.7 901 961.3 901 923 901C884.7 901 846.3 901 807.8 901C769.3 901 730.7 901 692.2 901C653.7 901 615.3 901 577 901C538.7 901 500.3 901 461.8 901C423.3 901 384.7 901 346.2 901C307.7 901 269.3 901 230.8 901C192.3 901 153.7 901 115.2 901C76.7 901 38.3 901 19.2 901L0 901Z" fill="#05095f"></path><path d="M0 714L19.2 716C38.3 718 76.7 722 115.2 735.8C153.7 749.7 192.3 773.3 230.8 782.8C269.3 792.3 307.7 787.7 346.2 771.7C384.7 755.7 423.3 728.3 461.8 723.3C500.3 718.3 538.7 735.7 577 747C615.3 758.3 653.7 763.7 692.2 756.7C730.7 749.7 769.3 730.3 807.8 730.5C846.3 730.7 884.7 750.3 923 757C961.3 763.7 999.7 757.3 1038.2 743.3C1076.7 729.3 1115.3 707.7 1153.8 702C1192.3 696.3 1230.7 706.7 1269.2 725.5C1307.7 744.3 1346.3 771.7 1384.8 779.2C1423.3 786.7 1461.7 774.3 1480.8 768.2L1500 762L1500 901L1480.8 901C1461.7 901 1423.3 901 1384.8 901C1346.3 901 1307.7 901 1269.2 901C1230.7 901 1192.3 901 1153.8 901C1115.3 901 1076.7 901 1038.2 901C999.7 901 961.3 901 923 901C884.7 901 846.3 901 807.8 901C769.3 901 730.7 901 692.2 901C653.7 901 615.3 901 577 901C538.7 901 500.3 901 461.8 901C423.3 901 384.7 901 346.2 901C307.7 901 269.3 901 230.8 901C192.3 901 153.7 901 115.2 901C76.7 901 38.3 901 19.2 901L0 901Z" fill="#0c0971"></path><path d="M0 810L19.2 815.3C38.3 820.7 76.7 831.3 115.2 824.3C153.7 817.3 192.3 792.7 230.8 789.2C269.3 785.7 307.7 803.3 346.2 810.5C384.7 817.7 423.3 814.3 461.8 811.5C500.3 808.7 538.7 806.3 577 795.8C615.3 785.3 653.7 766.7 692.2 772.8C730.7 779 769.3 810 807.8 822.7C846.3 835.3 884.7 829.7 923 813.2C961.3 796.7 999.7 769.3 1038.2 761.5C1076.7 753.7 1115.3 765.3 1153.8 779.5C1192.3 793.7 1230.7 810.3 1269.2 807.8C1307.7 805.3 1346.3 783.7 1384.8 785.8C1423.3 788 1461.7 814 1480.8 827L1500 840L1500 901L1480.8 901C1461.7 901 1423.3 901 1384.8 901C1346.3 901 1307.7 901 1269.2 901C1230.7 901 1192.3 901 1153.8 901C1115.3 901 1076.7 901 1038.2 901C999.7 901 961.3 901 923 901C884.7 901 846.3 901 807.8 901C769.3 901 730.7 901 692.2 901C653.7 901 615.3 901 577 901C538.7 901 500.3 901 461.8 901C423.3 901 384.7 901 346.2 901C307.7 901 269.3 901 230.8 901C192.3 901 153.7 901 115.2 901C76.7 901 38.3 901 19.2 901L0 901Z" fill="#160783"></path><path d="M0 860L19.2 862.7C38.3 865.3 76.7 870.7 115.2 872.5C153.7 874.3 192.3 872.7 230.8 859.5C269.3 846.3 307.7 821.7 346.2 809.8C384.7 798 423.3 799 461.8 807C500.3 815 538.7 830 577 833C615.3 836 653.7 827 692.2 826.8C730.7 826.7 769.3 835.3 807.8 832.2C846.3 829 884.7 814 923 819.3C961.3 824.7 999.7 850.3 1038.2 858.2C1076.7 866 1115.3 856 1153.8 854.5C1192.3 853 1230.7 860 1269.2 863.7C1307.7 867.3 1346.3 867.7 1384.8 856.8C1423.3 846 1461.7 824 1480.8 813L1500 802L1500 901L1480.8 901C1461.7 901 1423.3 901 1384.8 901C1346.3 901 1307.7 901 1269.2 901C1230.7 901 1192.3 901 1153.8 901C1115.3 901 1076.7 901 1038.2 901C999.7 901 961.3 901 923 901C884.7 901 846.3 901 807.8 901C769.3 901 730.7 901 692.2 901C653.7 901 615.3 901 577 901C538.7 901 500.3 901 461.8 901C423.3 901 384.7 901 346.2 901C307.7 901 269.3 901 230.8 901C192.3 901 153.7 901 115.2 901C76.7 901 38.3 901 19.2 901L0 901Z" fill="#210295"></path></svg>