<svg id="visual" width="1500" height="900" xmlns="http://www.w3.org/2000/svg" version="1.1"><path fill="#001220" d="M0 0h1500v900H0z"/><path d="m0 670 19.2 2.7c19.1 2.6 57.5 8 96 6.1 38.5-1.8 77.1-10.8 115.6-12 38.5-1.1 76.9 5.5 115.4 3s77.1-14.1 115.6-30C500.3 624 538.7 604 577 611.2c38.3 7.1 76.7 41.5 115.2 54.5s77.1 4.6 115.6 8.5c38.5 3.8 76.9 19.8 115.2 8.5 38.3-11.4 76.7-50 115.2-70.9 38.5-20.8 77.1-23.8 115.6-5 38.5 18.9 76.9 59.5 115.4 71.5s77.1-4.6 115.6-14.5c38.5-9.8 76.9-12.8 96-14.3l19.2-1.5v253H0Z" fill="#03084d"/><path d="m0 759 19.2-12.7c19.1-12.6 57.5-38 96-58.3 38.5-20.3 77.1-35.7 115.6-22.2 38.5 13.5 76.9 55.9 115.4 63.4s77.1-19.9 115.6-27.9 76.9 3.4 115.2 18.9c38.3 15.5 76.7 35.1 115.2 38.1s77.1-10.6 115.6-27.8c38.5-17.2 76.9-37.8 115.2-37.5 38.3.3 76.7 21.7 115.2 36s77.1 21.7 115.6 15.8c38.5-5.8 76.9-24.8 115.4-35.5 38.5-10.6 77.1-13 115.6-24.6 38.5-11.7 76.9-32.7 96-43.2L1500 631v270H0Z" fill="#05095f"/><path d="m0 714 19.2 2c19.1 2 57.5 6 96 19.8 38.5 13.9 77.1 37.5 115.6 47s76.9 4.9 115.4-11.1 77.1-43.4 115.6-48.4S538.7 735.7 577 747c38.3 11.3 76.7 16.7 115.2 9.7s77.1-26.4 115.6-26.2c38.5.2 76.9 19.8 115.2 26.5 38.3 6.7 76.7.3 115.2-13.7s77.1-35.6 115.6-41.3c38.5-5.7 76.9 4.7 115.4 23.5s77.1 46.2 115.6 53.7 76.9-4.9 96-11l19.2-6.2v139H0Z" fill="#0c0971"/><path d="m0 810 19.2 5.3c19.1 5.4 57.5 16 96 9s77.1-31.6 115.6-35.1 76.9 14.1 115.4 21.3c38.5 7.2 77.1 3.8 115.6 1s76.9-5.2 115.2-15.7 76.7-29.1 115.2-23c38.5 6.2 77.1 37.2 115.6 49.9 38.5 12.6 76.9 7 115.2-9.5s76.7-43.9 115.2-51.7c38.5-7.8 77.1 3.8 115.6 18s76.9 30.8 115.4 28.3 77.1-24.1 115.6-22c38.5 2.2 76.9 28.2 96 41.2l19.2 13v61H0Z" fill="#160783"/><path d="m0 860 19.2 2.7c19.1 2.6 57.5 8 96 9.8 38.5 1.8 77.1.2 115.6-13s76.9-37.8 115.4-49.7c38.5-11.8 77.1-10.8 115.6-2.8s76.9 23 115.2 26 76.7-6 115.2-6.2c38.5-.1 77.1 8.5 115.6 5.4 38.5-3.2 76.9-18.2 115.2-12.9 38.3 5.4 76.7 31 115.2 38.9 38.5 7.8 77.1-2.2 115.6-3.7s76.9 5.5 115.4 9.2c38.5 3.6 77.1 4 115.6-6.9 38.5-10.8 76.9-32.8 96-43.8l19.2-11v99H0Z" fill="#210295"/></svg>