<svg id="visual" width="1800" height="900" xmlns="http://www.w3.org/2000/svg" version="1.1"><path fill="#001220" d="M0 0h1800v900H0z"/><path d="m0 670 23 2.7c23 2.6 69 8 115.2 6.1 46.1-1.8 92.5-10.8 138.6-12 46.2-1.1 92.2 5.5 138.4 3 46.1-2.5 92.5-14.1 138.6-30C600 624 646 604 692.2 611.2c46.1 7.1 92.5 41.5 138.6 54.5 46.2 13 92.2 4.6 138.4 8.5 46.1 3.8 92.5 19.8 138.6 8.5 46.2-11.4 92.2-50 138.4-70.9 46.1-20.8 92.5-23.8 138.6-5 46.2 18.9 92.2 59.5 138.4 71.5 46.1 12 92.5-4.6 138.6-14.5C1708 654 1754 651 1777 649.5l23-1.5v253H0Z" fill="#03084d"/><path d="m0 759 23-12.7c23-12.6 69-38 115.2-58.3 46.1-20.3 92.5-35.7 138.6-22.2 46.2 13.5 92.2 55.9 138.4 63.4 46.1 7.5 92.5-19.9 138.6-27.9 46.2-8 92.2 3.4 138.4 18.9 46.1 15.5 92.5 35.1 138.6 38.1 46.2 3 92.2-10.6 138.4-27.8 46.1-17.2 92.5-37.8 138.6-37.5 46.2.3 92.2 21.7 138.4 36 46.1 14.3 92.5 21.7 138.6 15.8 46.2-5.8 92.2-24.8 138.4-35.5 46.1-10.6 92.5-13 138.6-24.6C1708 673 1754 652 1777 641.5l23-10.5v270H0Z" fill="#05095f"/><path d="m0 714 23 2c23 2 69 6 115.2 19.8 46.1 13.9 92.5 37.5 138.6 47 46.2 9.5 92.2 4.9 138.4-11.1 46.1-16 92.5-43.4 138.6-48.4 46.2-5 92.2 12.4 138.4 23.7 46.1 11.3 92.5 16.7 138.6 9.7 46.2-7 92.2-26.4 138.4-26.2 46.1.2 92.5 19.8 138.6 26.5 46.2 6.7 92.2.3 138.4-13.7 46.1-14 92.5-35.6 138.6-41.3 46.2-5.7 92.2 4.7 138.4 23.5 46.1 18.8 92.5 46.2 138.6 53.7 46.2 7.5 92.2-4.9 115.2-11l23-6.2v139H0Z" fill="#0c0971"/><path d="m0 810 23 5.3c23 5.4 69 16 115.2 9 46.1-7 92.5-31.6 138.6-35.1 46.2-3.5 92.2 14.1 138.4 21.3 46.1 7.2 92.5 3.8 138.6 1 46.2-2.8 92.2-5.2 138.4-15.7 46.1-10.5 92.5-29.1 138.6-23C877 779 923 810 969.2 822.7c46.1 12.6 92.5 7 138.6-9.5 46.2-16.5 92.2-43.9 138.4-51.7 46.1-7.8 92.5 3.8 138.6 18 46.2 14.2 92.2 30.8 138.4 28.3 46.1-2.5 92.5-24.1 138.6-22C1708 788 1754 814 1777 827l23 13v61H0Z" fill="#160783"/><path d="m0 860 23 2.7c23 2.6 69 8 115.2 9.8 46.1 1.8 92.5.2 138.6-13 46.2-13.2 92.2-37.8 138.4-49.7 46.1-11.8 92.5-10.8 138.6-2.8 46.2 8 92.2 23 138.4 26 46.1 3 92.5-6 138.6-6.2 46.2-.1 92.2 8.5 138.4 5.4 46.1-3.2 92.5-18.2 138.6-12.9 46.2 5.4 92.2 31 138.4 38.9 46.1 7.8 92.5-2.2 138.6-3.7 46.2-1.5 92.2 5.5 138.4 9.2 46.1 3.6 92.5 4 138.6-6.9C1708 846 1754 824 1777 813l23-11v99H0Z" fill="#210295"/></svg>