<svg id="visual" width="2560" height="1380" xmlns="http://www.w3.org/2000/svg" version="1.1"><path fill="#001220" d="M0 0h2560v1380H0z"/><path d="m0 1028 32.8 4c32.9 4 98.5 12 164.2 9.2 65.7-2.9 131.3-16.5 197-18.2 65.7-1.7 131.3 8.7 197 5 65.7-3.7 131.3-21.3 197-45.5 65.7-24.2 131.3-54.8 197-44 65.7 10.8 131.3 63.2 196.8 82.8 65.5 19.7 130.9 6.7 196.4 12.5 65.5 5.9 131.1 30.5 196.8 13.4 65.7-17.2 131.3-76.2 197-108 65.7-31.9 131.3-36.5 197-7.7 65.7 28.8 131.3 91.2 197 109.7 65.7 18.5 131.3-6.9 197-22 65.7-15.2 131.3-20.2 164.2-22.7l32.8-2.5v387H0Z" fill="#03084d"/><path d="m0 1164 32.8-19.3c32.9-19.4 98.5-58 164.2-89.2 65.7-31.2 131.3-54.8 197-34.2 65.7 20.7 131.3 85.7 197 97.2 65.7 11.5 131.3-30.5 197-42.8 65.7-12.4 131.3 5 197 28.8 65.7 23.8 131.3 54.2 196.8 59 65.5 4.8 130.9-15.8 196.4-42.2 65.5-26.3 131.1-58.3 196.8-58 65.7.4 131.3 33 197 55 65.7 22 131.3 33.4 197 24.4 65.7-9 131.3-38.4 197-54.9 65.7-16.5 131.3-20.1 197-38 65.7-17.8 131.3-49.8 164.2-65.8l32.8-16v413H0Z" fill="#05095f"/><path d="m0 1095 32.8 3.2c32.9 3.1 98.5 9.5 164.2 30.8 65.7 21.3 131.3 57.7 197 72.2 65.7 14.5 131.3 7.1 197-17.5 65.7-24.7 131.3-66.7 197-74.2 65.7-7.5 131.3 19.5 197 36.8 65.7 17.4 131.3 25 196.8 14.2s130.9-40.2 196.4-39.8c65.5.3 131.1 30.3 196.8 40.5 65.7 10.1 131.3.5 197-21 65.7-21.5 131.3-54.9 197-63.5 65.7-8.7 131.3 7.3 197 36.1 65.7 28.9 131.3 70.5 197 81.9 65.7 11.3 131.3-7.7 164.2-17.2l32.8-9.5v213H0Z" fill="#0c0971"/><path d="m0 1243 32.8 8c32.9 8 98.5 24 164.2 13.3 65.7-10.6 131.3-48 197-53.3 65.7-5.3 131.3 21.3 197 32.2 65.7 10.8 131.3 5.8 197 1.5 65.7-4.4 131.3-8 197-24 65.7-16 131.3-44.4 196.8-34.7 65.5 9.7 130.9 57.3 196.4 76.5 65.5 19.2 131.1 9.8 196.8-15.7 65.7-25.5 131.3-67.1 197-78.8 65.7-11.7 131.3 6.7 197 28.3 65.7 21.7 131.3 46.7 197 42.7 65.7-4 131.3-37 197-33.7 65.7 3.4 131.3 43 164.2 62.9l32.8 19.8v93H0Z" fill="#160783"/><path d="m0 1320 32.8 4c32.9 4 98.5 12 164.2 14.7 65.7 2.6 131.3 0 197-20.2 65.7-20.2 131.3-57.8 197-76 65.7-18.2 131.3-16.8 197-4.7 65.7 12.2 131.3 35.2 197 39.9 65.7 4.6 131.3-9 196.8-9.2 65.5-.2 130.9 13.2 196.4 8.3 65.5-4.8 131.1-27.8 196.8-19.8 65.7 8 131.3 47 197 58.8 65.7 11.9 131.3-3.5 197-5.6 65.7-2.2 131.3 8.8 197 14.5 65.7 5.6 131.3 6 197-10.7 65.7-16.7 131.3-50.3 164.2-67.2l32.8-16.8v151H0Z" fill="#210295"/></svg>